```obj
v 0 0 10
v 0 0 52
v 0 5 10
v 0 5 11
v 0 5 51
v 0 5 52
v 0 31 10
v 0 31 11
v 0 31 51
v 0 57 10
v 0 57 11
v 0 57 51
v 0 62 10
v 0 62 52
v 5 5 10
v 5 5 11
v 5 5 51
v 5 5 52
v 5 31 10
v 5 31 11
v 5 31 51
v 5 57 10
v 5 57 11
v 5 57 51
v 5 62 10
v 5 62 52
v 31 0 10
v 31 0 52
v 31 2 10
v 31 2 17
v 31 2 27
v 31 2 35
v 31 5 38
v 31 5 46
v 31 18 46
v 31 21 38
v 31 31 27
v 31 41 38
v 31 44 46
v 31 57 38
v 31 57 46
v 31 62 10
v 31 62 17
v 31 62 35
v 31 63 27
v 31 63 52
v 36 0 10
v 36 2 10
v 36 31 10
v 36 60 10
v 39 31 18
v 39 31 24
v 39 31 30
v 39 57 18
v 39 57 24
v 41 2 27
v 41 3 19
v 41 3 25
v 41 5 38
v 41 5 46
v 41 18 46
v 41 21 38
v 41 31 27
v 43 31 13
v 43 57 13
v 44 2 15
v 45 3 19
v 45 3 25
v 47 0 10
v 47 2 10
v 48 3 23
v 50 3 25
v 51 1 11
v 51 2 27
v 51 31 18
v 51 31 24
v 52 4 26
v 53 31 30
v 53 57 30
v 54 3 22
v 56 3 25
v 57 5 10
v 57 5 11
v 57 5 51
v 57 5 52
v 57 18 46
v 57 21 38
v 57 31 10
v 57 31 11
v 57 31 27
v 57 41 38
v 57 44 46
v 57 57 10
v 57 57 11
v 57 57 51
v 57 62 52
v 58 2 27
v 58 3 25
v 62 0 10
v 62 0 52
v 62 5 10
v 62 5 11
v 62 5 51
v 62 5 52
v 62 31 10
v 62 31 11
v 62 31 51
v 62 57 10
v 62 57 11
v 62 57 51
v 62 62 52
f 1 2 5
f 1 28 2
f 1 4 3
f 1 3 15
f 1 5 4
f 1 15 27
f 1 27 28
f 2 6 5
f 2 18 6
f 2 28 18
f 3 4 7
f 3 7 19
f 3 19 15
f 4 5 8
f 4 8 7
f 5 6 9
f 5 9 8
f 6 21 9
f 6 18 21
f 7 8 10
f 7 10 22
f 7 22 19
f 8 9 11
f 8 11 10
f 9 12 11
f 9 24 12
f 9 21 24
f 10 11 13
f 10 13 25
f 10 25 22
f 11 12 13
f 12 14 13
f 12 26 14
f 12 24 26
f 13 23 14
f 13 22 23
f 14 23 24
f 14 24 26
f 15 20 16
f 15 16 82
f 15 19 20
f 15 29 27
f 15 48 29
f 15 82 48
f 16 21 17
f 16 17 33
f 16 20 21
f 16 33 56
f 16 56 71
f 16 71 83
f 16 83 82
f 17 21 18
f 17 18 84
f 17 34 33
f 17 60 34
f 17 84 60
f 18 28 85
f 18 85 84
f 19 89 20
f 19 22 49
f 19 49 88
f 19 88 89
f 20 23 21
f 20 37 23
f 20 52 37
f 20 51 52
f 20 75 51
f 20 89 75
f 21 23 24
f 22 25 23
f 22 23 93
f 22 42 50
f 22 65 42
f 22 93 49
f 22 50 65
f 23 40 24
f 23 25 43
f 23 37 45
f 23 55 40
f 23 43 55
f 23 45 94
f 23 94 93
f 24 46 26
f 24 40 41
f 24 95 46
f 25 54 43
f 25 65 54
f 27 32 28
f 27 29 30
f 27 30 31
f 27 31 32
f 28 32 33
f 28 33 34
f 28 34 35
f 28 35 46
f 28 46 96
f 28 100 85
f 28 96 100
f 29 66 30
f 29 48 66
f 30 56 31
f 30 57 56
f 30 66 57
f 31 34 32
f 31 60 34
f 31 56 59
f 31 59 60
f 32 33 36
f 32 36 35
f 33 35 36
f 33 36 62
f 33 62 56
f 34 61 35
f 34 60 61
f 35 39 46
f 35 92 39
f 35 61 92
f 36 38 37
f 36 37 53
f 36 53 78
f 36 78 62
f 37 38 45
f 37 52 53
f 38 41 39
f 38 39 44
f 38 40 41
f 38 40 45
f 39 41 46
f 39 79 44
f 39 92 79
f 40 79 44
f 40 55 79
f 42 65 50
f 43 54 55
f 44 79 46
f 45 79 94
f 46 95 96
f 47 66 48
f 47 48 70
f 47 69 66
f 47 70 69
f 48 82 70
f 49 93 88
f 50 65 54
f 56 57 59
f 56 71 58
f 56 74 71
f 57 60 59
f 57 66 60
f 58 72 59
f 58 68 66
f 58 71 80
f 58 80 72
f 59 61 60
f 59 62 61
f 59 78 63
f 59 72 77
f 59 77 78
f 60 66 69
f 60 69 74
f 61 62 78
f 61 78 92
f 63 79 64
f 63 78 79
f 64 65 79
f 64 79 76
f 64 76 89
f 66 68 67
f 69 70 73
f 69 73 74
f 70 82 73
f 71 72 80
f 71 81 83
f 73 82 74
f 74 97 77
f 74 82 101
f 74 98 97
f 74 102 98
f 74 101 102
f 75 89 76
f 77 90 78
f 77 81 80
f 77 98 81
f 77 97 90
f 78 91 79
f 79 91 92
f 79 92 96
f 79 96 94
f 82 83 88
f 82 88 101
f 83 89 88
f 84 85 95
f 85 86 95
f 85 104 86
f 85 100 104
f 86 87 91
f 86 107 87
f 86 91 92
f 86 104 107
f 87 90 91
f 87 107 90
f 88 93 105
f 88 105 101
f 90 97 91
f 90 106 94
f 90 107 106
f 91 95 92
f 91 98 95
f 91 97 98
f 93 108 105
f 94 96 95
f 94 95 98
f 94 106 109
f 96 111 100
f 99 102 101
f 99 101 105
f 99 103 102
f 99 107 103
f 99 105 106
f 99 106 107
f 100 103 104
f 100 107 103
f 100 111 107
f 105 109 106
f 105 108 109
f 107 111 110
```
 ```obj
v 0 0 10
v 0 0 52
v 0 5 10
v 0 5 11
v 0 5 51
v 0 5 52
v 0 31 10
v 0 31 11
v 0 31 51
v 0 57 10
v 0 57 11
v 0 57 51
v 0 62 10
v 0 62 52
v 5 5 10
v 5 5 11
v 5 5 51
v 5 5 52
v 5 31 10
v 5 31 11
v 5 31 51
v 5 57 10
v 5 57 11
v 5 57 51
v 5 62 10
v 5 62 52
v 5 63 52
v 31 0 10
v 31 0 52
v 31 2 10
v 31 2 17
v 31 3 25
v 31 4 27
v 31 5 38
v 31 5 46
v 31 18 46
v 31 21 38
v 31 31 27
v 31 41 38
v 31 44 46
v 31 57 38
v 31 57 46
v 31 62 10
v 31 62 17
v 31 63 25
v 31 63 27
v 36 0 10
v 36 2 10
v 39 4 26
v 41 1 11
v 43 4 24
v 43 5 22
v 44 3 19
v 46 2 15
f 47 50 48
f 47 48 70
f 47 69 50
f 47 70 69
f 48 50 65
f 48 65 66
f 49 93 88
f 50 54 65
f 50 69 73
f 51 76 52
f 51 75 76
f 52 78 53
f 52 76 55
f 52 63 78
f 55 76 79
f 56 57 59
f 57 60 59
f 57 66 60
f 58 72 59
f 58 68 66
f 58 71 80
f 58 80 72
f 59 61 60
f 59 62 61
f 59 78 63
f 59 72 77
f 59 77 78
f 60 66 69
f 61 62 78
f 61 78 92
f 64 79 65
f 64 76 79
f 65 79 66
f 66 68 67
f 69 70 73
f 69 74 70
f 70 74 82
f 71 72 80
f 71 81 83
f 73 82 74
f 74 97 77
f 74 98 82
f 74 97 98
f 75 89 76
f 76 79 89
f 77 90 78
f 77 81 80
f 77 98 81
f 77 97 90
f 78 91 79
f 79 94 89
f 79 91 92
f 79 92 96
f 79 111 94
f 79 96 95
f 82 89 83
f 82 83 93
f 82 88 89
f 82 105 88
f 82 98 102
f 82 102 101
f 82 101 105
f 84 85 95
f 85 86 95
f 85 104 86
f 85 100 104
f 86 87 91
f 86 107 87
f 86 91 92
f 86 104 107
f 87 90 91
f 87 107 90
f 88 93 108
f 88 108 105
f 89 94 107
f 90 97 91
f 90 106 94
f 90 107 106
f 91 95 92
f 91 98 95
f 91 97 98
f 93 109 108
f 94 111 96
f 94 106 109
f 94 110 107
f 99 102 101
f 99 101 105
f 99 103 102
f 99 107 103
f 99 105 106
f 99 106 107
f 100 103 104
f 100 107 103
f 100 111 107
f 105 109 106
f 105 108 109
f 107 111 110
```