```obj
v 14 36 0
v 14 36 63
v 14 37 1
v 14 37 61
v 14 38 2
v 14 38 60
v 15 41 4
v 15 41 58
v 16 42 5
v 16 42 57
v 17 43 7
v 17 43 55
v 18 44 8
v 18 44 54
v 19 45 10
v 19 45 52
v 20 46 11
v 20 46 51
v 21 47 13
v 21 47 49
v 22 48 15
v 22 48 47
v 23 48 17
v 23 48 45
v 24 49 18
v 24 49 20
v 24 49 42
v 24 49 44
v 25 50 21
v 25 50 41
v 26 50 22
v 26 50 23
v 26 50 39
v 26 50 40
v 27 50 24
v 27 50 38
v 28 3 2
v 28 3 4
v 28 3 58
v 28 3 60
v 28 9 16
v 28 9 18
v 28 9 44
v 28 9 46
v 28 10 14
v 28 10 19
v 28 10 43
v 28 10 48
v 28 11 13
v 28 11 21
v 28 11 42
v 28 11 49
v 28 12 11
v 28 12 22
v 28 12 41
v 28 12 51
v 28 14 10
v 28 14 23
v 28 14 40
v 28 14 52
v 28 16 9
v 28 16 24
v 28 16 39
v 28 16 53
v 28 17 8
v 28 17 25
v 28 17 38
v 28 17 54
v 28 19 8
v 28 19 25
v 28 19 37
v 28 19 54
v 28 21 8
v 28 21 26
v 28 21 36
v 28 21 55
v 28 22 7
v 28 22 27
v 28 23 36
v 28 23 55
v 28 24 7
v 28 24 27
v 28 25 8
v 28 25 26
v 28 25 35
v 28 25 56
v 28 27 8
v 28 27 25
v 28 27 34
v 28 27 55
v 28 28 9
v 28 28 23
v 28 28 53
v 28 29 35
v 28 29 54
v 28 30 10
v 28 30 22
v 28 30 52
v 28 31 13
v 28 31 20
v 28 31 34
v 28 32 15
v 28 32 18
v 28 32 19
v 28 32 33
v 28 32 51
v 28 33 16
v 28 33 17
v 28 33 32
v 28 33 34
v 28 33 49
v 28 34 31
v 28 35 29
v 28 36 27
v 28 37 24
v 28 38 21
v 30 50 15
v 30 50 16
v 30 50 19
v 30 59 15
v 30 59 16
v 30 59 19
v 32 50 15
v 32 50 16
v 32 50 19
v 32 59 15
v 32 59 16
v 32 59 19
v 34 3 2
v 34 3 4
v 34 3 58
v 34 3 60
v 34 9 16
v 34 9 18
v 34 9 44
v 34 9 46
v 34 10 14
v 34 10 19
v 34 10 43
v 34 10 48
v 34 11 13
v 34 11 21
v 34 11 42
v 34 11 49
v 34 12 11
v 34 12 22
v 34 12 41
v 34 12 51
v 34 14 10
v 34 14 23
v 34 14 40
v 34 14 52
v 34 16 9
v 34 16 24
v 34 16 39
v 34 16 53
v 34 17 8
v 34 17 25
v 34 17 38
v 34 17 54
v 34 19 8
v 34 19 25
v 34 19 37
v 34 19 54
v 34 21 8
v 34 21 26
v 34 21 36
v 34 21 55
v 34 22 7
v 34 22 27
v 34 23 36
v 34 23 55
v 34 24 7
v 34 24 27
v 34 25 8
v 34 25 26
v 34 25 35
v 34 25 56
v 34 27 8
v 34 27 25
v 34 27 34
v 34 27 55
v 34 28 9
v 34 28 23
v 34 28 53
v 34 29 35
v 34 29 54
v 34 30 10
v 34 30 22
v 34 30 52
v 34 31 13
v 34 31 20
v 34 31 34
v 34 32 15
v 34 32 18
v 34 32 19
v 34 32 33
v 34 32 51
v 34 33 16
v 34 33 17
v 34 33 32
v 34 33 34
v 34 33 49
v 34 34 31
v 34 35 29
v 34 36 27
v 34 37 24
v 34 38 21
v 40 48 17
v 40 48 45
v 41 47 13
v 41 47 49
v 42 46 11
v 42 46 51
v 43 45 10
v 43 45 52
v 44 44 8
v 44 44 54
v 45 43 7
v 45 43 55
v 46 42 5
v 46 42 57
v 47 41 4
v 47 41 58
v 48 36 0
v 48 36 63
v 48 37 1
v 48 37 61
v 48 38 2
v 48 38 60
f 1 2 3
f 1 225 2
f 1 3 227
f 1 227 225
f 2 4 3
f 2 226 4
f 2 225 226
f 3 4 5
f 3 5 229
f 3 229 227
f 4 6 5
f 4 228 6
f 4 226 228
f 5 6 7
f 5 7 223
f 5 223 229
f 6 8 7
f 6 230 8
f 6 228 230
f 7 8 9
f 7 9 221
f 7 221 223
f 8 10 9
f 8 224 10
f 8 230 224
f 9 10 11
f 9 11 220
f 9 220 221
f 10 12 11
f 10 221 12
f 10 224 221
f 11 12 13
f 11 13 218
f 11 218 220
f 12 14 13
f 12 219 14
f 12 221 219
f 13 14 15
f 13 15 216
f 13 216 218
f 14 16 15
f 14 217 16
f 14 219 217
f 15 16 17
f 15 17 215
f 15 215 216
f 16 18 17
f 16 214 18
f 16 217 214
f 17 18 19
f 17 19 213
f 17 213 215
f 18 20 19
f 18 211 20
f 18 214 211
f 19 20 21
f 19 21 209
f 19 209 211
f 20 22 21
f 20 210 22
f 20 211 210
f 21 22 23
f 21 23 209
f 22 24 23
f 22 210 24
f 23 24 25
f 23 25 209
f 24 28 25
f 24 210 28
f 25 27 26
f 25 26 119
f 25 28 27
f 25 119 125
f 25 125 209
f 26 27 29
f 26 29 119
f 27 28 210
f 27 30 29
f 27 210 30
f 29 30 31
f 29 31 119
f 30 34 31
f 30 210 34
f 31 33 32
f 31 32 119
f 31 34 33
f 32 33 35
f 32 35 119
f 33 34 210
f 33 36 35
f 33 210 36
f 35 36 125
f 35 125 119
f 36 209 125
f 36 210 209
f 37 38 45
f 37 130 38
f 37 45 49
f 37 49 53
f 37 53 57
f 37 57 61
f 37 61 65
f 37 65 69
f 37 69 73
f 37 73 77
f 37 77 81
f 37 81 129
f 37 129 130
f 38 41 45
f 38 133 41
f 38 130 133
f 39 40 48
f 39 131 40
f 39 44 43
f 39 43 135
f 39 48 44
f 39 136 131
f 39 135 136
f 40 52 48
f 40 56 52
f 40 60 56
f 40 64 60
f 40 68 64
f 40 72 68
f 40 76 72
f 40 132 76
f 40 131 132
f 41 42 45
f 41 134 42
f 41 133 134
f 42 46 45
f 42 138 46
f 42 134 138
f 43 44 47
f 43 47 139
f 43 139 135
f 44 48 47
f 45 46 49
f 46 50 49
f 46 142 50
f 46 138 142
f 47 48 51
f 47 51 143
f 47 143 139
f 48 52 51
f 49 50 53
f 50 54 53
f 50 146 54
f 50 142 146
f 51 52 55
f 51 55 147
f 51 147 143
f 52 56 55
f 53 54 57
f 54 58 57
f 54 150 58
f 54 146 150
f 55 56 59
f 55 59 151
f 55 151 147
f 56 60 59
f 57 58 61
f 58 62 61
f 58 154 62
f 58 150 154
f 59 60 63
f 59 63 155
f 59 155 151
f 60 64 63
f 61 62 65
f 62 66 65
f 62 158 66
f 62 154 158
f 63 64 67
f 63 67 159
f 63 159 155
f 64 68 67
f 65 66 69
f 66 70 69
f 66 162 70
f 66 158 162
f 67 68 71
f 67 71 163
f 67 163 159
f 68 72 71
f 69 70 73
f 70 74 73
f 70 166 74
f 70 162 166
f 71 72 75
f 71 75 167
f 71 167 163
f 72 76 75
f 73 74 77
f 74 78 77
f 74 170 78
f 74 166 170
f 75 76 79
f 75 79 171
f 75 171 167
f 76 80 79
f 76 168 80
f 76 132 168
f 77 78 81
f 78 82 81
f 78 173 82
f 78 170 173
f 79 80 85
f 79 85 177
f 79 177 171
f 80 86 85
f 80 172 86
f 80 168 172
f 81 82 83
f 81 83 175
f 81 173 129
f 81 175 173
f 82 84 83
f 82 176 84
f 82 173 176
f 83 84 87
f 83 87 178
f 83 178 175
f 84 88 87
f 84 180 88
f 84 176 180
f 85 86 89
f 85 89 181
f 85 181 177
f 86 90 89
f 86 178 90
f 86 172 178
f 87 88 91
f 87 91 183
f 87 183 178
f 88 92 91
f 88 184 92
f 88 180 184
f 89 90 94
f 89 94 186
f 89 186 181
f 90 95 94
f 90 182 95
f 90 178 182
f 91 92 96
f 91 96 188
f 91 188 183
f 92 97 96
f 92 189 97
f 92 184 189
f 93 94 95
f 93 101 94
f 93 95 187
f 93 98 101
f 93 190 98
f 93 187 190
f 94 101 193
f 94 193 186
f 95 182 187
f 96 97 99
f 96 99 191
f 96 191 188
f 97 100 99
f 97 192 100
f 97 189 192
f 98 105 101
f 98 106 105
f 98 198 106
f 98 190 198
f 99 100 102
f 99 102 194
f 99 194 191
f 100 104 102
f 100 196 104
f 100 192 196
f 101 105 197
f 101 197 193
f 102 103 107
f 102 108 103
f 102 104 108
f 102 107 199
f 102 200 108
f 102 199 194
f 102 199 200
f 103 108 107
f 104 195 108
f 104 196 195
f 105 106 110
f 105 110 109
f 105 109 201
f 105 201 197
f 106 111 110
f 106 203 111
f 106 198 203
f 107 108 200
f 107 200 199
f 108 112 115
f 108 118 112
f 108 115 116
f 108 116 118
f 108 195 200
f 109 110 202
f 109 202 201
f 110 111 202
f 111 203 202
f 112 113 115
f 112 205 113
f 112 118 204
f 112 204 205
f 113 114 115
f 113 206 114
f 113 205 206
f 114 116 115
f 114 119 116
f 114 122 119
f 114 128 122
f 114 206 128
f 116 119 118
f 117 118 121
f 117 123 118
f 117 121 120
f 117 120 126
f 117 126 123
f 118 119 121
f 118 123 124
f 118 124 204
f 119 122 121
f 120 121 126
f 121 122 127
f 121 127 126
f 122 128 127
f 123 127 124
f 123 126 127
f 124 125 128
f 124 128 127
f 124 127 204
f 125 128 127
f 125 207 208
f 125 209 207
f 127 128 206
f 127 205 204
f 127 206 205
f 129 133 130
f 129 137 133
f 129 141 137
f 129 145 141
f 129 149 145
f 129 153 149
f 129 157 153
f 129 161 157
f 129 165 161
f 129 169 165
f 129 173 169
f 131 140 132
f 131 136 140
f 132 140 144
f 132 144 148
f 132 148 152
f 132 152 156
f 132 156 160
f 132 160 163
f 132 163 168
f 133 137 134
f 134 137 138
f 135 140 136
f 135 139 140
f 137 141 138
f 138 141 142
f 139 144 140
f 139 143 144
f 141 145 142
f 142 145 146
f 143 148 144
f 143 147 148
f 145 149 146
f 146 149 150
f 147 152 148
f 147 151 152
f 149 153 150
f 150 153 154
f 151 156 152
f 151 155 156
f 153 157 154
f 154 157 158
f 155 160 156
f 155 159 160
f 157 161 158
f 158 161 162
f 159 163 160
f 161 165 162
f 162 165 166
f 163 167 168
f 164 172 168
f 164 178 172
f 164 182 178
f 164 187 182
f 164 190 187
f 164 198 190
f 164 203 198
f 165 169 166
f 166 171 167
f 166 169 170
f 166 171 177
f 166 177 181
f 166 181 186
f 166 186 193
f 166 193 197
f 166 197 201
f 166 201 202
f 167 172 168
f 167 171 172
f 169 173 170
f 169 176 173
f 169 180 176
f 169 184 180
f 169 189 184
f 169 192 189
f 169 196 192
f 169 200 196
f 171 178 172
f 171 177 178
f 173 175 174
f 174 176 175
f 175 180 176
f 175 178 179
f 175 179 180
f 177 182 178
f 177 181 182
f 178 183 179
f 179 184 180
f 179 183 184
f 181 187 182
f 181 186 187
f 183 189 184
f 183 188 189
f 185 190 186
f 186 190 187
f 188 196 189
f 188 191 195
f 188 195 196
f 189 197 192
f 189 201 197
f 189 196 200
f 189 200 205
f 189 204 201
f 189 205 206
f 189 206 208
f 190 203 198
f 191 194 195
f 192 196 200
f 192 197 203
f 193 202 197
f 193 203 202
f 194 199 195
f 197 202 203
f 200 209 205
f 207 209 208
f 209 210 211
f 211 214 213
f 212 218 215
f 212 220 218
f 212 221 220
f 213 214 215
f 214 216 215
f 217 219 222
f 217 222 219
f 219 221 222
f 221 224 222
f 222 224 229
f 223 230 229
f 225 227 226
f 226 227 228
f 227 229 228
f 228 229 230
```